<?xml version="1.0" encoding="utf-8"?>
<!-- Generator: Adobe Illustrator 15.0.0, SVG Export Plug-In . SVG Version: 6.00 Build 0)  -->
<!DOCTYPE svg PUBLIC "-//W3C//DTD SVG 1.1//EN" "http://www.w3.org/Graphics/SVG/1.1/DTD/svg11.dtd">
<svg version="1.1" id="Layer_1" xmlns="http://www.w3.org/2000/svg" xmlns:xlink="http://www.w3.org/1999/xlink" x="0px" y="0px"
	 width="25px" height="25px" viewBox="0 0 25 25" enable-background="new 0 0 25 25" xml:space="preserve">
<path d="M13.402,12.934L13.402,12.934c-0.118,0-0.234-0.003-0.35-0.01l-0.939-0.058l0.823-0.455c1.271-0.703,2.17-1.574,2.643-2.096
	c-0.747-0.385-1.324-0.988-1.646-1.729c-0.414-0.945-0.388-2.013,0.075-3.007c0.457-0.982,1.286-1.776,2.334-2.234
	c0.609-0.267,1.247-0.402,1.894-0.402c1.625,0,3,0.84,3.591,2.192c0.848,1.939-0.233,4.29-2.41,5.242
	c-0.306,0.134-0.633,0.236-0.974,0.305C17.246,12.229,15.005,12.934,13.402,12.934z M18.236,3.491c-0.57,0-1.135,0.12-1.674,0.355
	c-0.926,0.405-1.656,1.102-2.058,1.963c-0.396,0.85-0.42,1.758-0.071,2.557c0.314,0.718,0.916,1.286,1.694,1.598l0.349,0.14
	l-0.24,0.289c-0.301,0.365-1.039,1.183-2.155,1.952c1.401-0.165,3.073-0.83,3.987-2.075l0.063-0.088l0.108-0.019
	c0.336-0.061,0.658-0.157,0.957-0.288c1.9-0.831,2.854-2.858,2.127-4.521C20.823,4.205,19.641,3.491,18.236,3.491z"/>
<path fill="#6D6E71" d="M21.995,5.062c-0.621-1.419-2.06-2.301-3.757-2.301c-0.674,0-1.334,0.14-1.967,0.417
	c-1.092,0.479-1.955,1.307-2.431,2.336c-0.479,1.04-0.506,2.157-0.075,3.145c0.309,0.702,0.842,1.296,1.523,1.702
	c-0.489,0.514-1.318,1.27-2.44,1.891l-1.371,0.758l1.563,0.096c0.118,0.008,0.238,0.012,0.361,0.012
	c1.617,0,3.897-0.711,5.144-2.271c0.33-0.07,0.647-0.172,0.944-0.302C21.759,9.551,22.882,7.093,21.995,5.062z M18.029,10.015
	l-0.107,0.147c-0.714,0.972-1.943,1.587-3.109,1.867c0.799-0.638,1.334-1.24,1.564-1.519l0.4-0.481l-0.58-0.233
	c-0.734-0.295-1.301-0.828-1.596-1.501c-0.687-1.57,0.227-3.491,2.033-4.281c0.518-0.226,1.057-0.34,1.602-0.34
	c1.33,0,2.449,0.672,2.922,1.754c0.688,1.57-0.227,3.49-2.034,4.281c-0.287,0.125-0.595,0.217-0.916,0.274L18.029,10.015z"/>
<g>
	<path fill="#6D6E71" d="M17.553,7.859c-0.391-0.151-0.81,0.043-0.966,0.446c-0.157,0.406,0.019,0.826,0.415,0.979
		c0.09,0.035,0.182,0.053,0.273,0.053c0.306,0,0.568-0.192,0.689-0.505C18.118,8.413,17.949,8.013,17.553,7.859z"/>
	<polygon fill="#6D6E71" points="18.172,4.648 17.225,7.485 18.264,7.887 19.471,5.15 	"/>
</g>
<g>
	<path fill="#6D6E71" d="M4.714,12.229l0.091-1.561c-2.674,1.78-2.034,5.205-2.034,5.205s0.101,1.705,1.541,3.264l0.095-1.635
		C3.284,15.191,4.152,13.165,4.714,12.229z"/>
</g>
<path fill="#6D6E71" d="M15.454,13.655c-2.89,0.76-5.293,0.227-6.079-0.721c0.618-0.056,1.649-0.63,2.675-1.308H6.567l0.04-0.41
	h5.654l0.02,0.254c0.485-0.328,0.963-0.67,1.387-0.988c-1.197-0.844-1.307-2.223-1.284-2.892c-0.134-0.172-0.327-0.28-0.625-0.335
	l-0.063-0.024l-0.018,0.01C11.483,7.212,11.249,7.2,10.966,7.2l-0.618,0.002L8.316,7.201c-1.855,0-2.058,0.218-2.168,2.333
	L5.531,19.636c-0.014,0.267-0.029,0.5-0.043,0.709c-0.058,0.869-0.086,1.306,0.186,1.597c0.266,0.285,0.724,0.299,1.509,0.299
	l3.963-0.004l0.631,0.003c0.607,0,0.979-0.02,1.229-0.15c0.622-0.2,1.676-0.69,2.549-1.12l0.038-0.019
	c0.214-0.104,0.384-0.187,0.054-4.843C15.589,15.294,15.521,14.455,15.454,13.655z M6.714,9.47h5.455l0.027,0.419H6.674L6.714,9.47z
	 M9.424,16.08c0.496,0,0.898,0.441,0.898,0.984c0,0.545-0.402,0.985-0.898,0.985c-0.496,0-0.898-0.44-0.898-0.985
	C8.526,16.521,8.928,16.08,9.424,16.08z M6.387,20.256l0.044-0.445h6.041l0.078,0.445H6.387z"/>
<g>
	<path fill="#6D6E71" d="M9.442,4.024c1.409,0.039,2.562,0.338,3.539,0.774c0.111-0.247,0.275-0.545,0.498-0.839
		c-2.817-1.234-6.36-0.737-6.936-0.642C6.712,3.321,7.19,3.456,8.427,4.412C8.981,4.84,9.158,5.397,9,6.094
		c0.364-0.021,0.702-0.03,1.019-0.031C10.042,4.372,9.442,4.024,9.442,4.024z"/>
</g>
<g>
	<path fill="#6D6E71" d="M20.635,10.948c-0.063,0.039-0.126,0.078-0.191,0.112c0.063,0.499,0.072,1.269-0.281,2.055
		c-0.594,1.318-2.537,1.285-2.537,1.285s0.753-1.035,0.903-2.352c-0.312,0.249-0.751,0.571-1.164,0.79
		c-0.165,0.34-0.372,0.676-0.567,1.014c0.044,0.46,0.078,0.929,0.105,1.396c1.656,0.308,3.479-0.313,3.985-1.604
		c1.054,3.403-2.363,4.963-3.881,5.477c-0.001,0.75-0.014,1.239-0.014,1.249c0.466-0.095,0.983-0.256,1.567-0.524
		C24.11,17.296,21.581,12.433,20.635,10.948z"/>
</g>
</svg>
