<?xml version="1.0" encoding="UTF-8" standalone="no"?>
<!-- Generator: Adobe Illustrator 15.0.0, SVG Export Plug-In . SVG Version: 6.00 Build 0)  -->

<svg
   xmlns:dc="http://purl.org/dc/elements/1.1/"
   xmlns:cc="http://creativecommons.org/ns#"
   xmlns:rdf="http://www.w3.org/1999/02/22-rdf-syntax-ns#"
   xmlns:svg="http://www.w3.org/2000/svg"
   xmlns="http://www.w3.org/2000/svg"
   xmlns:sodipodi="http://sodipodi.sourceforge.net/DTD/sodipodi-0.dtd"
   xmlns:inkscape="http://www.inkscape.org/namespaces/inkscape"
   version="1.1"
   id="Layer_1"
   x="0px"
   y="0px"
   width="74"
   height="74"
   viewBox="0 0 74 74"
   enable-background="new 0 0 73.583 71.417"
   xml:space="preserve"
   inkscape:version="0.48.0 r9654"
   sodipodi:docname="notifry.svg"
   inkscape:export-filename="/home/daniel/notifry/android/assets/notifry.png"
   inkscape:export-xdpi="87.57"
   inkscape:export-ydpi="87.57"><metadata
   id="metadata107"><rdf:RDF><cc:Work
       rdf:about=""><dc:format>image/svg+xml</dc:format><dc:type
         rdf:resource="http://purl.org/dc/dcmitype/StillImage" /><dc:title></dc:title></cc:Work></rdf:RDF></metadata><defs
   id="defs105" /><sodipodi:namedview
   pagecolor="#ffffff"
   bordercolor="#666666"
   borderopacity="1"
   objecttolerance="10"
   gridtolerance="10"
   guidetolerance="10"
   inkscape:pageopacity="0"
   inkscape:pageshadow="2"
   inkscape:window-width="1083"
   inkscape:window-height="812"
   id="namedview103"
   showgrid="false"
   inkscape:zoom="4.0466556"
   inkscape:cx="36.7915"
   inkscape:cy="35.7085"
   inkscape:window-x="0"
   inkscape:window-y="24"
   inkscape:window-maximized="0"
   inkscape:current-layer="Layer_1" />
<g
   id="g3"
   transform="translate(-0.24711765,0.85317668)">
	<g
   id="g5">
		<radialGradient
   id="SVGID_1_"
   cx="37.170898"
   cy="43.266602"
   r="41.739399"
   fx="28.3633"
   fy="26.532499"
   gradientUnits="userSpaceOnUse">
			<stop
   offset="0"
   style="stop-color:#F7941E"
   id="stop8" />
			<stop
   offset="1"
   style="stop-color:#BE1E2D"
   id="stop10" />
		</radialGradient>
		<path
   d="m 31.503,69.828 c 2.314,0.102 4.802,-0.381 7.324,-1.025 0.325,0.082 0.862,0.432 0.887,0.174 1.174,-11.969 4.288,1.654 20.224,-5.77 24.096,-11.227 6.471,-34.563 6.471,-34.563 0,0 1.541,4.78 -0.625,9.655 -2.168,4.875 -9.26,4.759 -9.26,4.759 0,0 3.414,-4.712 3.414,-10.337 0,-11.94 -0.748,-13.224 -11.904,-23.993 -10.248,-9.891 -29.367,-7.12 -31.959,-6.69 0.615,0.015 2.361,0.514 6.875,4.052 6.167,4.833 -1.5,16.167 -12.333,22.553 -10.833,6.386 -8.314,19.862 -8.314,19.862 0,0 1.146,20.086 29.2,21.323 z"
   id="path12"
   inkscape:connector-curvature="0"
   style="fill:url(#SVGID_1_)" />
		<radialGradient
   id="SVGID_2_"
   cx="15.9224"
   cy="2.0645001"
   r="0.1086"
   gradientUnits="userSpaceOnUse">
			<stop
   offset="0"
   style="stop-color:#F7941E"
   id="stop15" />
			<stop
   offset="1"
   style="stop-color:#BE1E2D"
   id="stop17" />
		</radialGradient>
		<path
   d="m 15.771,2.091 c 0,0 0.11,-0.02 0.303,-0.052 -0.225,-0.006 -0.303,0.052 -0.303,0.052 z"
   id="path19"
   inkscape:connector-curvature="0"
   style="fill:url(#SVGID_2_)" />
	</g>
	<linearGradient
   id="SVGID_3_"
   gradientUnits="userSpaceOnUse"
   x1="28.762699"
   y1="77.762703"
   x2="36.429199"
   y2="51.429199">
		<stop
   offset="0.076"
   style="stop-color:#F7941E"
   id="stop22" />
		<stop
   offset="1"
   style="stop-color:#FFF200"
   id="stop24" />
	</linearGradient>
	<path
   d="m 28.003,66.355 c 0,0 -21.613,-0.475 -19.99,-18.625 1.792,-13.759 10.958,-13.269 17.625,-16.988 6.667,-3.719 15.44,-14.386 10.125,-20.511 4.33,0.6 29.768,14.644 12.5,40.125 5.25,2.203 16.344,-1.527 18.844,-5.359 -1.125,14.874 -5.771,21.692 -39.104,21.358 z"
   id="path26"
   inkscape:connector-curvature="0"
   style="fill:url(#SVGID_3_)" />
</g>
<g
   id="g28"
   transform="translate(-0.24711765,0.85317668)">
	<linearGradient
   id="SVGID_4_"
   gradientUnits="userSpaceOnUse"
   x1="40.6577"
   y1="37.253899"
   x2="52.612202"
   y2="61.675701">
		<stop
   offset="0"
   style="stop-color:#565759"
   id="stop31" />
		<stop
   offset="0.1758"
   style="stop-color:#808285"
   id="stop33" />
		<stop
   offset="1"
   style="stop-color:#565759"
   id="stop35" />
	</linearGradient>
	<path
   d="m 39.325,16.138 c 0,0 10.006,7.232 11.684,10.899 0.807,6.395 3.541,37.944 2.299,38.54 -1.242,0.598 -10.315,4.522 -11.868,4.495 -1.553,-0.03 -3.111,-51.533 -2.115,-53.934 z"
   id="path37"
   inkscape:connector-curvature="0"
   style="fill:url(#SVGID_4_)" />
	<linearGradient
   id="SVGID_5_"
   gradientUnits="userSpaceOnUse"
   x1="38.5718"
   y1="42.961899"
   x2="54.143101"
   y2="42.961899">
		<stop
   offset="0.0121"
   style="stop-color:#4F4F51"
   id="stop40" />
		<stop
   offset="1"
   style="stop-color:#333334"
   id="stop42" />
	</linearGradient>
	<path
   d="M 42.396,70.343 H 41.43 C 41.308,70.341 41.077,70.297 40.9,70.031 39.059,67.263 38.052,17.616 38.846,15.704 l 0.222,-0.124 1.272,0.485 c 0.356,0.208 9.427,6.775 11.141,10.521 l 0.042,0.147 c 0.415,3.29 1.307,12.917 1.92,21.473 1.224,17.046 0.568,17.362 0.091,17.592 -0.619,0.299 -9.285,4.545 -11.138,4.545 z m -0.947,-1.023 0.007,0.512 V 69.32 c -0.002,0 -0.005,0 -0.007,0 z M 39.672,16.793 c -0.708,6.405 0.888,48.978 2.021,52.505 1.894,-0.304 9.524,-3.547 11.264,-4.362 C 53.778,62.502 51.393,34.045 50.504,26.94 49.066,23.951 41.89,18.448 39.672,16.793 z"
   id="path44"
   inkscape:connector-curvature="0"
   style="fill:url(#SVGID_5_)" />
	<linearGradient
   id="SVGID_6_"
   gradientUnits="userSpaceOnUse"
   x1="19.1646"
   y1="18.7778"
   x2="40.756302"
   y2="73.575302">
		<stop
   offset="0.0121"
   style="stop-color:#757679"
   id="stop47" />
		<stop
   offset="0.4788"
   style="stop-color:#E6E7E8"
   id="stop49" />
		<stop
   offset="1"
   style="stop-color:#95979A"
   id="stop51" />
	</linearGradient>
	<path
   d="m 44.042,62.338 c 0.505,8.307 1.679,7.965 -7.189,7.937 l -14.28,0.014 c -7.499,0.016 -6.521,0.002 -6.065,-8.713 l 2.348,-37.992 c 0.391,-7.396 0.719,-7.81 7.217,-7.81 l 7.738,0.009 c 8.847,-0.009 7.391,-0.669 8.26,11.939 l 1.971,34.616 z"
   id="path53"
   inkscape:connector-curvature="0"
   style="fill:url(#SVGID_6_)" />
	<polygon
   points="41.382,24.143 19.522,24.143 19.708,22.64 41.308,22.64 "
   id="polygon55"
   style="fill:#f6f6f6" />
	<polygon
   points="41.654,27.5 19.352,27.5 19.44,25.998 41.554,25.998 "
   id="polygon57"
   style="fill:#f6f6f6" />
	<polygon
   points="41.81,30.762 19.173,30.762 19.278,29.259 41.728,29.259 "
   id="polygon59"
   style="fill:#f6f6f6" />
	<g
   id="g61">
		<linearGradient
   id="SVGID_7_"
   gradientUnits="userSpaceOnUse"
   x1="15.9224"
   y1="42.9893"
   x2="44.9473"
   y2="42.9893">
			<stop
   offset="0.0121"
   style="stop-color:#4F4F51"
   id="stop64" />
			<stop
   offset="1"
   style="stop-color:#333334"
   id="stop66" />
		</linearGradient>
		<path
   d="M 44.791,64.718 C 44.73,63.967 44.662,63.107 44.602,62.128 L 42.644,27.754 c -0.12,-1.731 -0.195,-3.209 -0.259,-4.472 -0.354,-6.971 -0.399,-7.867 -6.119,-7.867 l -2.34,0.008 -7.683,-0.009 c -6.705,0 -7.279,0.616 -7.682,8.234 L 16.23,61.374 c -0.053,0.996 -0.111,1.875 -0.163,2.654 -0.208,3.102 -0.313,4.658 0.565,5.585 0.859,0.907 2.5,0.951 5.326,0.951 l 14.987,-0.016 2.386,0.01 c 2.798,0 4.203,-0.092 4.981,-0.925 0.805,-0.859 0.695,-2.216 0.479,-4.915 z M 19.342,27.788 h 22.265 c 10e-4,0.01 10e-4,0.019 0.002,0.029 l 0.099,1.729 H 19.233 l 0.109,-1.758 z m 22.064,-3.357 c 0.03,0.577 0.065,1.197 0.105,1.854 H 19.436 l 0.114,-1.854 h 21.856 z m -15.164,-7.994 7.683,0.009 2.34,-0.008 c 4.635,0 4.732,0.017 5.063,6.49 h -21.69 c 0.352,-6.346 0.696,-6.491 6.604,-6.491 z M 43.551,68.94 c -0.473,0.505 -1.738,0.595 -4.22,0.595 l -2.384,-0.01 -14.988,0.016 c -2.474,0 -4.016,-0.042 -4.57,-0.628 -0.571,-0.602 -0.471,-2.1 -0.288,-4.818 0.052,-0.784 0.111,-1.669 0.164,-2.666 l 1.877,-30.38 h 22.652 l 1.774,31.138 c 0.061,0.987 0.129,1.853 0.19,2.61 0.18,2.253 0.29,3.612 -0.207,4.143 z"
   id="path68"
   inkscape:connector-curvature="0"
   style="fill:url(#SVGID_7_)" />
		<linearGradient
   id="SVGID_8_"
   gradientUnits="userSpaceOnUse"
   x1="19.508301"
   y1="62.577099"
   x2="41.564499"
   y2="62.577099">
			<stop
   offset="0.0121"
   style="stop-color:#4F4F51"
   id="stop71" />
			<stop
   offset="1"
   style="stop-color:#333334"
   id="stop73" />
		</linearGradient>
		<polygon
   points="19.596,62.002 19.508,63.153 41.564,63.153 41.479,62.002 "
   id="polygon75"
   style="fill:url(#SVGID_8_)" />
		<linearGradient
   id="SVGID_9_"
   gradientUnits="userSpaceOnUse"
   x1="19.790501"
   y1="59.166"
   x2="41.241699"
   y2="59.166">
			<stop
   offset="0.0121"
   style="stop-color:#4F4F51"
   id="stop78" />
			<stop
   offset="1"
   style="stop-color:#333334"
   id="stop80" />
		</linearGradient>
		<polygon
   points="41.113,58.59 19.899,58.59 19.791,59.742 41.242,59.742 "
   id="polygon82"
   style="fill:url(#SVGID_9_)" />
	</g>
	
		<radialGradient
   id="SVGID_10_"
   cx="30.3262"
   cy="51.748001"
   r="2.7121999"
   gradientTransform="matrix(1.0124,0,0,1,-0.1462,0)"
   gradientUnits="userSpaceOnUse">
		<stop
   offset="0"
   style="stop-color:#C9EBFC"
   id="stop85" />
		<stop
   offset="1"
   style="stop-color:#00AEEF"
   id="stop87" />
	</radialGradient>
	<ellipse
   cx="30.556999"
   cy="51.748001"
   rx="2.5680001"
   ry="2.8770001"
   id="ellipse89"
   sodipodi:cx="30.556999"
   sodipodi:cy="51.748001"
   sodipodi:rx="2.5680001"
   sodipodi:ry="2.8770001"
   style="fill:url(#SVGID_10_)"
   d="m 33.124999,51.748001 c 0,1.588923 -1.149733,2.877 -2.568,2.877 -1.418267,0 -2.568,-1.288077 -2.568,-2.877 0,-1.588923 1.149733,-2.877 2.568,-2.877 1.418267,0 2.568,1.288077 2.568,2.877 z" />
	<path
   d="m 30.549,49.724 c -0.997,0 -1.807,0.907 -1.807,2.024 0,1.119 0.81,2.024 1.807,2.024 0.999,0 1.808,-0.906 1.808,-2.024 0,-1.117 -0.81,-2.024 -1.808,-2.024 z m 0.007,3.661 c -0.806,0 -1.46,-0.734 -1.46,-1.637 0,-0.905 0.654,-1.637 1.46,-1.637 0.808,0 1.462,0.731 1.462,1.637 0,0.903 -0.654,1.637 -1.462,1.637 z"
   id="path91"
   inkscape:connector-curvature="0"
   style="fill:#dcf2fd" />
</g>
<g
   id="g93"
   transform="translate(-0.24711765,0.85317668)">
	<path
   stroke-miterlimit="10"
   d="M 69.178,9.782 C 66.328,3.263 58.033,0.594 50.653,3.82 43.273,7.046 39.6,14.947 42.451,21.466 c 1.293,2.961 3.716,5.117 6.662,6.298 -1.244,1.502 -4.973,5.631 -10.691,8.793 6.443,0.396 14.791,-2.463 18.873,-8.022 1.233,-0.221 2.469,-0.577 3.68,-1.106 7.38,-3.226 11.054,-11.127 8.203,-17.647 z"
   id="path95"
   inkscape:connector-curvature="0"
   style="fill:#ffffff;stroke:#000000;stroke-width:2;stroke-miterlimit:10" />
	<path
   stroke-miterlimit="10"
   d="m 39.626,37.252 c 0,0 -10e-4,0 -10e-4,0 -0.42,0 -0.836,-0.013 -1.243,-0.039 l -2.256,-0.138 1.979,-1.094 c 4.9,-2.709 8.3,-6.121 9.933,-7.972 -2.815,-1.345 -4.994,-3.548 -6.189,-6.28 -2.991,-6.841 0.84,-15.146 8.543,-18.513 2.162,-0.945 4.421,-1.424 6.716,-1.424 5.734,0 10.592,2.961 12.676,7.727 2.989,6.841 -0.843,15.146 -8.543,18.513 -1.121,0.49 -2.32,0.86 -3.572,1.104 -4.246,5.574 -12.295,8.116 -18.043,8.116 z M 57.106,3.108 c -2.113,0 -4.194,0.442 -6.189,1.314 -7.037,3.076 -10.564,10.604 -7.865,16.78 1.169,2.677 3.411,4.79 6.308,5.952 l 0.837,0.335 -0.578,0.695 c -1.18,1.425 -4.21,4.766 -8.812,7.715 5.376,-0.319 12.3,-2.775 15.958,-7.754 l 0.154,-0.212 0.259,-0.046 c 1.242,-0.223 2.429,-0.58 3.535,-1.062 C 67.747,23.749 71.276,16.22 68.578,10.045 66.705,5.767 62.311,3.108 57.106,3.108 z"
   id="path97"
   inkscape:connector-curvature="0"
   style="stroke:#000000;stroke-width:2;stroke-miterlimit:10" />
</g>
<path
   d="m 52.424882,25.432176 c -1.508,-0.583 -2.116,-2.111 -1.538,-3.611 0.605,-1.557 2.088,-2.209 3.624,-1.616 1.536,0.594 2.137,2.054 1.565,3.622 -0.579,1.5 -2.028,2.232 -3.594,1.626 l -0.057,-0.021 z"
   id="path99"
   inkscape:connector-curvature="0" />
<polygon
   points="53.693,16.958 57.021,6.292 61.996,8.216 57.282,18.346 "
   id="polygon101"
   transform="translate(-0.24711765,0.85317668)" />
</svg>