<?xml version="1.0" encoding="UTF-8" standalone="no"?>
<!-- Generator: Adobe Illustrator 15.0.0, SVG Export Plug-In . SVG Version: 6.00 Build 0)  -->

<svg
   xmlns:dc="http://purl.org/dc/elements/1.1/"
   xmlns:cc="http://creativecommons.org/ns#"
   xmlns:rdf="http://www.w3.org/1999/02/22-rdf-syntax-ns#"
   xmlns:svg="http://www.w3.org/2000/svg"
   xmlns="http://www.w3.org/2000/svg"
   xmlns:sodipodi="http://sodipodi.sourceforge.net/DTD/sodipodi-0.dtd"
   xmlns:inkscape="http://www.inkscape.org/namespaces/inkscape"
   version="1.1"
   id="Layer_1"
   x="0px"
   y="0px"
   width="74"
   height="74"
   viewBox="0 0 74 74"
   enable-background="new 0 0 73.583 71.417"
   xml:space="preserve"
   inkscape:version="0.48.0 r9654"
   sodipodi:docname="notifry_hush.svg"
   inkscape:export-filename="/home/daniel/notifry/android/assets/notifry_hush.png"
   inkscape:export-xdpi="87.567566"
   inkscape:export-ydpi="87.567566"><metadata
   id="metadata116"><rdf:RDF><cc:Work
       rdf:about=""><dc:format>image/svg+xml</dc:format><dc:type
         rdf:resource="http://purl.org/dc/dcmitype/StillImage" /><dc:title></dc:title></cc:Work></rdf:RDF></metadata><defs
   id="defs114" /><sodipodi:namedview
   pagecolor="#ffffff"
   bordercolor="#666666"
   borderopacity="1"
   objecttolerance="10"
   gridtolerance="10"
   guidetolerance="10"
   inkscape:pageopacity="0"
   inkscape:pageshadow="2"
   inkscape:window-width="1085"
   inkscape:window-height="834"
   id="namedview112"
   showgrid="false"
   inkscape:zoom="4.0466556"
   inkscape:cx="36.7915"
   inkscape:cy="35.7085"
   inkscape:window-x="0"
   inkscape:window-y="24"
   inkscape:window-maximized="0"
   inkscape:current-layer="Layer_1" />
<g
   id="g3"
   transform="translate(0,-0.6295292)">
	
		<radialGradient
   id="SVGID_1_"
   cx="37.190399"
   cy="-197.6548"
   r="41.7789"
   fx="28.3745"
   fy="-214.4048"
   gradientTransform="matrix(1,0,0,-0.6316,-0.02,-71.8246)"
   gradientUnits="userSpaceOnUse">
		<stop
   offset="0"
   style="stop-color:#F7941E"
   id="stop6" />
		<stop
   offset="1"
   style="stop-color:#BE1E2D"
   id="stop8" />
	</radialGradient>
	<path
   d="m 31.503,69.833 c 2.314,0.063 4.802,-0.242 7.324,-0.647 0.325,0.052 0.862,0.272 0.887,0.108 1.175,-7.559 4.289,1.045 20.225,-3.644 24.096,-7.09 6.471,-21.829 6.471,-21.829 0,0 1.541,3.02 -0.625,6.098 -2.168,3.08 -9.26,3.006 -9.26,3.006 0,0 3.414,-2.977 3.414,-6.527 0,-7.542 -0.748,-8.354 -11.904,-15.153 -10.248,-6.248 -27.459,-4.665 -30.053,-4.394 0.615,0.009 0.454,0.493 4.969,2.728 6.167,3.052 -1.5,10.209 -12.333,14.245 -10.833,4.033 -8.314,12.543 -8.314,12.543 0,0 1.145,12.685 29.199,13.466 z"
   id="path10"
   inkscape:connector-curvature="0"
   style="fill:url(#SVGID_1_)" />
</g>
<linearGradient
   id="SVGID_2_"
   gradientUnits="userSpaceOnUse"
   x1="31.3276"
   y1="-6.4555998"
   x2="36.4221"
   y2="11.0432"
   gradientTransform="matrix(1,0,0,-1,-0.02,69.882171)">
	<stop
   offset="0.076"
   style="stop-color:#F7941E"
   id="stop13" />
	<stop
   offset="1"
   style="stop-color:#FFF200"
   id="stop15" />
</linearGradient>
<path
   d="m 28.003,67.009471 c 0,0 -21.613,-0.3 -19.99,-11.763 1.792,-8.69 10.958,-8.381 17.625,-10.729 6.667,-2.348 15.44,-9.086 10.125,-12.955 4.329,0.378 29.768,9.249 12.5,25.343 5.25,1.391 16.344,-0.966 18.844,-3.386 -1.125,9.395 -5.771,13.701 -39.104,13.49 z"
   id="path17"
   inkscape:connector-curvature="0"
   style="fill:url(#SVGID_2_)" />
<g
   id="g19"
   transform="translate(0,-0.6295292)">
	
		<linearGradient
   id="SVGID_3_"
   gradientUnits="userSpaceOnUse"
   x1="40.619598"
   y1="33.313"
   x2="52.6063"
   y2="8.8254995"
   gradientTransform="matrix(1,0,0,-1,-0.02,70.5117)">
		<stop
   offset="0"
   style="stop-color:#565759"
   id="stop22" />
		<stop
   offset="0.1758"
   style="stop-color:#808285"
   id="stop24" />
		<stop
   offset="1"
   style="stop-color:#565759"
   id="stop26" />
	</linearGradient>
	<path
   d="m 39.275,16.019 c 0,0 10.019,7.253 11.697,10.931 0.806,6.414 3.544,38.055 2.301,38.652 C 52.031,66.203 42.947,70.138 41.39,70.11 39.837,70.081 38.276,18.428 39.275,16.019 z"
   id="path28"
   inkscape:connector-curvature="0"
   style="fill:url(#SVGID_3_)" />
	
		<linearGradient
   id="SVGID_4_"
   gradientUnits="userSpaceOnUse"
   x1="38.540501"
   y1="27.5903"
   x2="54.131302"
   y2="27.5903"
   gradientTransform="matrix(1,0,0,-1,-0.02,70.5117)">
		<stop
   offset="0.0121"
   style="stop-color:#4F4F51"
   id="stop31" />
		<stop
   offset="1"
   style="stop-color:#333334"
   id="stop33" />
	</linearGradient>
	<path
   d="M 42.351,70.383 H 41.38 C 41.258,70.381 41.029,70.337 40.852,70.07 39.008,67.294 38,17.502 38.794,15.584 l 0.225,-0.125 1.274,0.487 c 0.355,0.209 9.436,6.794 11.152,10.552 l 0.042,0.147 c 0.414,3.3 1.308,12.955 1.923,21.536 1.226,17.096 0.568,17.412 0.091,17.644 -0.62,0.299 -9.295,4.558 -11.15,4.558 z m -0.949,-1.026 0.004,0.514 v -0.514 c -10e-4,0 -0.002,0 -0.004,0 z M 39.624,16.676 C 38.915,23.1 40.513,65.798 41.647,69.335 43.543,69.031 51.181,65.778 52.924,64.96 53.746,62.518 51.358,33.979 50.469,26.853 49.028,23.856 41.843,18.336 39.624,16.676 z"
   id="path35"
   inkscape:connector-curvature="0"
   style="fill:url(#SVGID_4_)" />
	
		<linearGradient
   id="SVGID_5_"
   gradientUnits="userSpaceOnUse"
   x1="19.315399"
   y1="51.7104"
   x2="40.810501"
   y2="-2.8418"
   gradientTransform="matrix(1,0,0,-1,-0.02,70.5117)">
		<stop
   offset="0.0121"
   style="stop-color:#757679"
   id="stop38" />
		<stop
   offset="0.4788"
   style="stop-color:#E6E7E8"
   id="stop40" />
		<stop
   offset="1"
   style="stop-color:#95979A"
   id="stop42" />
	</linearGradient>
	<path
   d="m 44.041,62.173 c 0.502,8.271 1.668,7.931 -7.147,7.903 L 22.698,70.09 c -7.455,0.016 -6.482,0.002 -6.029,-8.677 l 2.333,-37.831 c 0.389,-7.365 0.713,-7.776 7.174,-7.776 l 7.691,0.009 c 8.795,-0.009 7.348,-0.666 8.212,11.888 l 1.962,34.47 z"
   id="path44"
   inkscape:connector-curvature="0"
   style="fill:url(#SVGID_5_)" />
	<polygon
   points="41.26,22.541 41.334,24.048 19.449,24.048 19.635,22.541 "
   id="polygon46"
   style="fill:#f6f6f6" />
	<polygon
   points="41.505,25.909 41.608,27.415 19.279,27.415 19.366,25.909 "
   id="polygon48"
   style="fill:#f6f6f6" />
	<polygon
   points="41.68,29.179 41.764,30.686 19.098,30.686 19.205,29.179 "
   id="polygon50"
   style="fill:#f6f6f6" />
	<g
   id="g52">
		
			<linearGradient
   id="SVGID_6_"
   gradientUnits="userSpaceOnUse"
   x1="15.8633"
   y1="27.561001"
   x2="44.925301"
   y2="27.561001"
   gradientTransform="matrix(1,0,0,-1,-0.02,70.5117)">
			<stop
   offset="0.0121"
   style="stop-color:#4F4F51"
   id="stop55" />
			<stop
   offset="1"
   style="stop-color:#333334"
   id="stop57" />
		</linearGradient>
		<path
   d="m 44.749,64.742 c -0.062,-0.755 -0.13,-1.615 -0.19,-2.598 L 42.596,27.669 c -0.116,-1.735 -0.194,-3.218 -0.257,-4.485 -0.355,-6.992 -0.402,-7.89 -6.128,-7.89 l -2.343,0.008 -7.692,-0.009 c -6.714,0 -7.289,0.618 -7.692,8.259 L 16.15,61.388 c -0.051,0.999 -0.111,1.88 -0.163,2.662 -0.208,3.109 -0.314,4.674 0.566,5.603 0.861,0.91 2.504,0.955 5.333,0.955 l 15.005,-0.017 2.39,0.01 c 2.801,0 4.205,-0.093 4.987,-0.928 0.808,-0.864 0.696,-2.224 0.481,-4.931 z M 19.268,27.704 h 22.291 c 0,0.01 0,0.02 0.002,0.029 l 0.098,1.734 h -22.5 l 0.109,-1.763 z m 22.091,-3.368 c 0.029,0.579 0.065,1.202 0.105,1.861 H 19.361 l 0.115,-1.861 h 21.883 z m -15.183,-8.016 7.693,0.009 2.342,-0.008 c 4.642,0 4.738,0.017 5.069,6.509 H 19.564 c 0.353,-6.366 0.697,-6.51 6.612,-6.51 z m 17.329,52.655 c -0.476,0.508 -1.739,0.599 -4.224,0.599 L 36.892,69.563 21.887,69.58 c -2.477,0 -4.02,-0.043 -4.576,-0.63 -0.571,-0.604 -0.471,-2.106 -0.288,-4.832 0.052,-0.785 0.111,-1.674 0.164,-2.673 l 1.88,-30.469 h 22.68 l 1.778,31.229 c 0.059,0.99 0.128,1.859 0.189,2.617 0.18,2.259 0.289,3.621 -0.209,4.153 z"
   id="path59"
   inkscape:connector-curvature="0"
   style="fill:url(#SVGID_6_)" />
		
			<linearGradient
   id="SVGID_7_"
   gradientUnits="userSpaceOnUse"
   x1="19.4541"
   y1="7.9175"
   x2="41.537601"
   y2="7.9175"
   gradientTransform="matrix(1,0,0,-1,-0.02,70.5117)">
			<stop
   offset="0.0121"
   style="stop-color:#4F4F51"
   id="stop62" />
			<stop
   offset="1"
   style="stop-color:#333334"
   id="stop64" />
		</linearGradient>
		<polygon
   points="41.432,62.017 19.522,62.017 19.434,63.171 41.517,63.171 "
   id="polygon66"
   style="fill:url(#SVGID_7_)" />
		
			<linearGradient
   id="SVGID_8_"
   gradientUnits="userSpaceOnUse"
   x1="19.736799"
   y1="11.3384"
   x2="41.213402"
   y2="11.3384"
   gradientTransform="matrix(1,0,0,-1,-0.02,70.5117)">
			<stop
   offset="0.0121"
   style="stop-color:#4F4F51"
   id="stop69" />
			<stop
   offset="1"
   style="stop-color:#333334"
   id="stop71" />
		</linearGradient>
		<polygon
   points="41.193,59.75 41.064,58.596 19.825,58.596 19.717,59.75 "
   id="polygon73"
   style="fill:url(#SVGID_8_)" />
	</g>
	
		<radialGradient
   id="SVGID_9_"
   cx="31.6812"
   cy="18.778299"
   r="2.7205"
   gradientTransform="matrix(1.0107,0,0,-1,-1.5234,70.5117)"
   gradientUnits="userSpaceOnUse">
		<stop
   offset="0"
   style="stop-color:#C9EBFC"
   id="stop76" />
		<stop
   offset="1"
   style="stop-color:#00AEEF"
   id="stop78" />
	</radialGradient>
	<ellipse
   cx="30.496"
   cy="51.733002"
   rx="2.5710001"
   ry="2.8859999"
   id="ellipse80"
   sodipodi:cx="30.496"
   sodipodi:cy="51.733002"
   sodipodi:rx="2.5710001"
   sodipodi:ry="2.8859999"
   style="fill:url(#SVGID_9_)"
   d="m 33.067,51.733002 c 0,1.593893 -1.151076,2.886 -2.571,2.886 -1.419924,0 -2.571,-1.292107 -2.571,-2.886 0,-1.593894 1.151076,-2.886 2.571,-2.886 1.419924,0 2.571,1.292106 2.571,2.886 z" />
	<path
   d="m 30.489,49.703 c -0.999,0 -1.809,0.91 -1.809,2.032 0,1.123 0.811,2.031 1.809,2.031 1,0 1.81,-0.908 1.81,-2.031 0,-1.122 -0.811,-2.032 -1.81,-2.032 z m 0.006,3.672 c -0.807,0 -1.462,-0.735 -1.462,-1.641 0,-0.908 0.655,-1.642 1.462,-1.642 0.808,0 1.464,0.733 1.464,1.642 0.001,0.905 -0.655,1.641 -1.464,1.641 z"
   id="path82"
   inkscape:connector-curvature="0"
   style="fill:#dcf2fd" />
</g>
<linearGradient
   id="SVGID_10_"
   gradientUnits="userSpaceOnUse"
   x1="37.373501"
   y1="26.154301"
   x2="38.787201"
   y2="59.062302"
   gradientTransform="matrix(1,0,0,-1,-0.02,69.882171)">
	<stop
   offset="0"
   style="stop-color:#56CAEF"
   id="stop85" />
	<stop
   offset="1"
   style="stop-color:#A5DFF9"
   id="stop87" />
</linearGradient>
<path
   stroke-miterlimit="10"
   d="m 69.63,30.455471 c -8.698,-0.604 -16.922,1.107 -16.922,1.107 0,0 7.333,-1.782 10.181,-4.089 3.906,-3.167 3.982,-10.232 -0.638,-7.792 -4.623,2.44 -10.764,6.335 -10.764,6.335 0,0 0.926,-15.381 -1.112,-26.6460002 H 18.889 c -0.292,5.802 -1.378,27.0840002 -1.185,33.9830002 -2.28,1.565 -21.075,-7.422 -12.792,1.141 4.326,4.472 7.29,3.557 9.302,3.25 -0.083,2.597 -13.497,-0.028 -11.022,3.25 1.538,2.037 9.704,4.01 14.354,3.477 -1.816,1.925 -4.134,4.914 -1.271,5.134 4.04,0.312 11.267,-9.06 12.893,-13.901 3.203,-0.031 12.486,-0.057 13.291,2.496 0.894,2.836 14.47,14.838 15.834,8.963 1.167,-4.833 -3.555,-10.284 -5.413,-11.019 1.841,-0.265 5.521,1.968 9.055,2.056 5.708,0.143 16.395,-7.141 7.695,-7.745 z"
   id="path89"
   inkscape:connector-curvature="0"
   style="fill:url(#SVGID_10_);stroke:#00a3d7;stroke-width:1;stroke-miterlimit:10" />
<linearGradient
   id="SVGID_11_"
   gradientUnits="userSpaceOnUse"
   x1="47.633301"
   y1="25.4604"
   x2="45.883301"
   y2="40.210098"
   gradientTransform="matrix(1,0,0,-1,-0.02,69.882171)">
	<stop
   offset="0"
   style="stop-color:#56CAEF"
   id="stop92" />
	<stop
   offset="1"
   style="stop-color:#A5DFF9"
   id="stop94" />
</linearGradient>
<path
   d="m 46.217,28.574471 c 0,0 -0.449,-19.5000004 -1.334,-21.0000004 -0.885,-1.4999998 -4.388,18.6500004 1.334,21.0000004 z"
   id="path96"
   inkscape:connector-curvature="0"
   style="fill:url(#SVGID_11_)" />
<linearGradient
   id="SVGID_12_"
   gradientUnits="userSpaceOnUse"
   x1="52.859901"
   y1="43.148899"
   x2="51.109901"
   y2="57.898899"
   gradientTransform="matrix(0.9978,0.0664,0.0664,-0.9978,-29.7308,84.540771)">
	<stop
   offset="0"
   style="stop-color:#56CAEF"
   id="stop99" />
	<stop
   offset="1"
   style="stop-color:#A5DFF9"
   id="stop101" />
</linearGradient>
<path
   d="M 22.878,29.493471 24.699,2.1394708 c 0,0 5.428,24.6530002 -1.821,27.3540002 z"
   id="path103"
   inkscape:connector-curvature="0"
   style="fill:url(#SVGID_12_)" />
<linearGradient
   id="SVGID_13_"
   gradientUnits="userSpaceOnUse"
   x1="4.6040001"
   y1="46.165501"
   x2="14.3096"
   y2="46.165501"
   gradientTransform="matrix(1,0,0,-1,-0.02,69.882171)">
	<stop
   offset="0"
   style="stop-color:#56CAEF"
   id="stop106" />
	<stop
   offset="1"
   style="stop-color:#A5DFF9"
   id="stop108" />
</linearGradient>
<path
   stroke-miterlimit="10"
   d="m 14.259,26.794471 c 0.673,0.029 -10,-9.196 -9.667,-5.112 0.333,4.084 6.325,4.97 9.667,5.112 z"
   id="path110"
   inkscape:connector-curvature="0"
   style="fill:url(#SVGID_13_);stroke:#00a3d7;stroke-width:1;stroke-miterlimit:10" />
</svg>